<?xml version="1.0" encoding="UTF-8"?>
<svg version="1.1" xmlns="http://www.w3.org/2000/svg" width="224" height="225">
<path d="M0 0 C8.65580208 2.79838515 17.3368954 5.4041135 26.109375 7.8125 C27.54417709 8.20704376 27.54417709 8.20704376 29.00796509 8.60955811 C32.87877959 9.67159102 36.75030972 10.73059557 40.62591553 11.77502441 C43.36976988 12.51484287 46.11075215 13.2646211 48.8515625 14.015625 C49.66840515 14.23210693 50.4852478 14.44858887 51.32684326 14.67163086 C58.25280917 16.58201934 65.20154738 18.90470746 69.9375 24.5625 C70.48019531 25.18769531 71.02289063 25.81289063 71.58203125 26.45703125 C75.89626898 32.86831618 76.56918311 38.19176654 76.54492188 45.74926758 C76.55339142 46.72909103 76.56186096 47.70891449 76.57058716 48.71842957 C76.59390479 51.9439304 76.59498043 55.16895264 76.59375 58.39453125 C76.60085543 60.64743743 76.60855498 62.9003418 76.61682129 65.15324402 C76.63025464 69.87150097 76.63184027 74.58959063 76.62597656 79.30786133 C76.62008598 85.33687034 76.65065176 91.36507257 76.69109344 97.39392567 C76.71701878 102.04640483 76.71984335 106.69869109 76.71620178 111.35123253 C76.71788893 113.57306633 76.72749212 115.79490943 76.74534607 118.01667213 C76.76762764 121.13250381 76.75778601 124.24671988 76.74023438 127.36254883 C76.75349762 128.26937408 76.76676086 129.17619934 76.78042603 130.11050415 C76.69309223 136.82582988 74.9068704 142.1603221 71.125 147.75 C70.135 148.41 69.145 149.07 68.125 149.75 C68.12280016 148.90296509 68.12280016 148.90296509 68.12055588 148.03881836 C68.08344309 134.27462647 68.02411846 120.51068299 67.94109726 106.74668884 C67.901615 100.09037907 67.86943003 93.4342544 67.85400391 86.77783203 C67.83884261 80.3521195 67.80440533 73.92677108 67.75669098 67.5012207 C67.74187195 65.05170865 67.73395869 62.60214462 67.73311615 60.15258789 C67.73074645 56.71721736 67.70366415 53.282853 67.67089844 49.84765625 C67.6759288 48.83848648 67.68095917 47.82931671 67.68614197 46.78956604 C67.57622429 39.32387634 66.11712464 33.69869057 60.703125 28.36328125 C58.06683088 26.71360023 55.86211506 25.78440553 52.875 24.9375 C51.73289062 24.6075 50.59078125 24.2775 49.4140625 23.9375 C47.98472022 23.54042191 46.55499141 23.14473402 45.125 22.75 C43.25771123 22.22952987 41.39053226 21.70866568 39.5234375 21.1875 C36.35091463 20.30216233 33.17820503 19.41757736 30.00439453 18.53686523 C21.62889404 16.2024543 13.30480333 13.72286699 5.00048828 11.1472168 C2.37869906 10.33651608 -0.24714107 9.54078639 -2.875 8.75 C-3.84211914 8.45158203 -4.80923828 8.15316406 -5.80566406 7.84570312 C-6.76956055 7.56146484 -7.73345703 7.27722656 -8.7265625 6.984375 C-9.59361816 6.72366211 -10.46067383 6.46294922 -11.35400391 6.19433594 C-16.97034337 5.20443299 -20.45883061 7.5178841 -25 10.625 C-26.03382812 11.32367188 -27.06765625 12.02234375 -28.1328125 12.7421875 C-32.38168006 15.56487898 -32.38168006 15.56487898 -34.25531673 20.0021162 C-34.25774663 20.88863023 -34.26017653 21.77514425 -34.26268005 22.68852234 C-34.27258469 23.70761185 -34.28248932 24.72670135 -34.29269409 25.77667236 C-34.28819244 26.89410828 -34.2836908 28.01154419 -34.27905273 29.1628418 C-34.28591599 30.34036514 -34.29277924 31.51788849 -34.29985046 32.73109436 C-34.31503409 35.96286908 -34.31660634 39.19428311 -34.31090808 42.42607856 C-34.30781836 45.1270467 -34.31390685 47.82796262 -34.31994683 50.52892333 C-34.33400395 56.90628921 -34.33242342 63.2835212 -34.32104492 69.66088867 C-34.30958628 76.22802502 -34.32359823 82.7947519 -34.3504414 89.36183423 C-34.37264775 95.00701282 -34.37922402 100.65206338 -34.37336498 106.29728252 C-34.37000303 109.66560553 -34.37235808 113.03366666 -34.38961601 116.40195274 C-34.4045231 120.16500438 -34.39384784 123.92716154 -34.37670898 127.69018555 C-34.38637695 128.79750031 -34.39604492 129.90481506 -34.40600586 131.04568481 C-34.33615956 138.38383743 -33.39935193 144.193839 -28.00854492 149.63330078 C-25.30723723 151.04716752 -22.68718838 151.83603454 -19.73828125 152.6171875 C-18.52914062 152.94332031 -17.32 153.26945313 -16.07421875 153.60546875 C-14.77874513 153.94569082 -13.48317019 154.28552732 -12.1875 154.625 C-9.54727404 155.3273678 -6.90835108 156.03455775 -4.26953125 156.7421875 C-3.62319733 156.91457947 -2.9768634 157.08697144 -2.3109436 157.2645874 C2.02601436 158.42900656 6.30479203 159.71979382 10.578125 161.09619141 C19.29221286 163.87962739 27.79331842 165.52722719 36.6875 162.5625 C40.40101979 159.80116477 42.6581485 157.1505545 44.125 152.75 C44.24540484 150.22259301 44.31304562 147.72353863 44.328125 145.1953125 C44.33382507 144.45675018 44.33952515 143.71818787 44.34539795 142.95724487 C44.35483645 141.39550199 44.36137737 139.8337393 44.36523438 138.27197266 C44.37493646 135.89059474 44.40596778 133.51008156 44.4375 131.12890625 C44.44403094 129.60938011 44.44928106 128.08984781 44.453125 126.5703125 C44.4716452 125.50757614 44.4716452 125.50757614 44.49053955 124.42337036 C44.47081583 120.01577995 43.83536466 117.25028161 41.125 113.75 C38.59235302 112.00521986 38.59235302 112.00521986 35.625 110.6875 C34.6659375 110.22214844 33.706875 109.75679688 32.71875 109.27734375 C23.60116403 105.40236971 14.32340301 102.57921935 4.75 100.0625 C3.60144531 99.75505859 2.45289063 99.44761719 1.26953125 99.13085938 C-3.43880591 97.8784088 -8.09446753 96.70610649 -12.875 95.75 C-12.545 106.97 -12.215 118.19 -11.875 129.75 C-4.09820012 131.91965448 -4.09820012 131.91965448 3.67919922 134.0871582 C10.1835991 135.90510886 16.66281426 137.78718658 23.125 139.75 C23.125 135.46 23.125 131.17 23.125 126.75 C21.701875 126.5953125 21.701875 126.5953125 20.25 126.4375 C8.09367542 124.71867542 8.09367542 124.71867542 5.125 121.75 C5.08407063 119.41702567 5.08258277 117.08294775 5.125 114.75 C8.51557225 113.60530291 10.6279643 113.91134764 14.0390625 114.89453125 C14.96460938 115.15943359 15.89015625 115.42433594 16.84375 115.69726562 C17.8028125 115.98279297 18.761875 116.26832031 19.75 116.5625 C20.71679688 116.83642578 21.68359375 117.11035156 22.6796875 117.39257812 C29.85787408 119.48287408 29.85787408 119.48287408 32.125 121.75 C32.36791992 124.53149414 32.36791992 124.53149414 32.35546875 128.03515625 C32.35353516 129.28748047 32.35160156 130.53980469 32.34960938 131.83007812 C32.33736328 133.14427734 32.32511719 134.45847656 32.3125 135.8125 C32.3115332 137.78959961 32.3115332 137.78959961 32.31054688 139.80664062 C32.26509123 149.60990877 32.26509123 149.60990877 31.125 150.75 C23.94895314 150.31243617 17.47936131 148.59203001 10.625 146.5 C8.5078474 145.8657689 6.39065965 145.23165513 4.2734375 144.59765625 C2.71834473 144.12803467 2.71834473 144.12803467 1.13183594 143.64892578 C-1.62245671 142.82550052 -4.38220722 142.02831688 -7.1484375 141.24609375 C-8.3250293 140.91109863 -8.3250293 140.91109863 -9.52539062 140.56933594 C-10.97337867 140.15807682 -12.42255042 139.75095543 -13.87304688 139.34863281 C-16.84348678 138.49414328 -18.6519501 137.9730499 -20.875 135.75 C-21.12223816 133.61802673 -21.12223816 133.61802673 -21.11791992 130.94897461 C-21.12099655 129.95131577 -21.12407318 128.95365692 -21.12724304 127.92576599 C-21.12005753 126.84553665 -21.11287201 125.76530731 -21.10546875 124.65234375 C-21.10501053 123.54774307 -21.10455231 122.4431424 -21.1040802 121.30506897 C-21.10105547 118.96728442 -21.09316264 116.62950192 -21.08081055 114.29174805 C-21.06255834 110.69898397 -21.06030078 107.10647746 -21.06054688 103.51367188 C-21.05563174 101.24739359 -21.04980344 98.98111706 -21.04296875 96.71484375 C-21.04185593 95.63259018 -21.0407431 94.55033661 -21.03959656 93.43528748 C-21.03321671 92.44078079 -21.02683685 91.44627411 -21.02026367 90.42163086 C-21.01454597 89.10164345 -21.01454597 89.10164345 -21.00871277 87.75498962 C-20.875 85.75 -20.875 85.75 -19.875 84.75 C-13.93993449 84.10130605 -8.7516107 86.13999197 -3.1875 87.9375 C-1.13364113 88.58077667 0.92106273 89.22136105 2.9765625 89.859375 C4.00426758 90.17841797 5.03197266 90.49746094 6.09082031 90.82617188 C10.6007276 92.19932034 15.13356953 93.46922513 19.6875 94.6875 C20.45344482 94.89850342 21.21938965 95.10950684 22.00854492 95.3269043 C26.75876068 96.57914214 31.33612919 97.71933568 36.13671875 96.05078125 C40.53053657 93.45955536 43.08069735 91.03314744 44.67822266 86.01074219 C45.64625672 81.11238402 45.43133636 76.04727333 45.47509766 71.0703125 C45.49161516 69.69709272 45.51885057 68.32395743 45.55712891 66.95117188 C46.03559798 56.50980332 46.03559798 56.50980332 41.81567383 47.30688477 C33.79891933 39.92452471 21.56091348 38.19174678 11.3125 35.5625 C8.79109972 34.90651614 6.27056975 34.24738093 3.75080872 33.58512878 C2.19372034 33.1768346 0.63556894 32.77256575 -0.92378235 32.3730011 C-4.73643145 31.38274312 -8.19788666 30.22084533 -11.875 28.75 C-11.875 40.63 -11.875 52.51 -11.875 64.75 C-9.565 65.08 -7.255 65.41 -4.875 65.75 C-3.0212491 66.16484441 -1.17407628 66.61053789 0.6640625 67.08984375 C2.15292969 67.4775293 2.15292969 67.4775293 3.671875 67.87304688 C5.19554688 68.27620117 5.19554688 68.27620117 6.75 68.6875 C7.77351563 68.95240234 8.79703125 69.21730469 9.8515625 69.49023438 C14.44939939 70.69656788 18.69216947 71.97686779 23.125 73.75 C22.795 69.46 22.465 65.17 22.125 60.75 C20.98160156 60.40066406 19.83820313 60.05132812 18.66015625 59.69140625 C17.16922012 59.23193537 15.67833745 58.77229099 14.1875 58.3125 C13.43275391 58.08240234 12.67800781 57.85230469 11.90039062 57.61523438 C6.23828125 55.86328125 6.23828125 55.86328125 5.125 54.75 C5.08419217 52.75041636 5.08245644 50.74954746 5.125 48.75 C8.93934756 47.74824354 11.40201359 47.8162233 15.171875 48.9296875 C16.09871094 49.19910156 17.02554688 49.46851563 17.98046875 49.74609375 C18.93566406 50.03613281 19.89085937 50.32617188 20.875 50.625 C21.84566406 50.90730469 22.81632812 51.18960938 23.81640625 51.48046875 C30.96507626 53.59007626 30.96507626 53.59007626 32.125 54.75 C32.22493532 56.8105531 32.25580906 58.8745259 32.2578125 60.9375 C32.25910156 62.19304687 32.26039063 63.44859375 32.26171875 64.7421875 C32.25962402 65.39928711 32.2575293 66.05638672 32.25537109 66.73339844 C32.25002234 68.74161335 32.25531691 70.74960459 32.26171875 72.7578125 C32.26042969 74.01335937 32.25914062 75.26890625 32.2578125 76.5625 C32.25668457 77.72394531 32.25555664 78.88539062 32.25439453 80.08203125 C32.125 82.75 32.125 82.75 31.125 83.75 C23.49212677 83.72193059 16.26434752 81.6253034 9 79.5 C7.91138672 79.18788574 6.82277344 78.87577148 5.70117188 78.55419922 C-19.27485618 71.35014382 -19.27485618 71.35014382 -20.875 69.75 C-20.97346967 68.19000952 -21.00298618 66.62559456 -21.00439453 65.0625 C-21.00754669 64.06476563 -21.01069885 63.06703125 -21.01394653 62.0390625 C-21.0119223 60.95367187 -21.00989807 59.86828125 -21.0078125 58.75 C-21.00924759 57.09097656 -21.00924759 57.09097656 -21.01071167 55.3984375 C-21.01139367 53.05468692 -21.00953804 50.71093447 -21.00537109 48.3671875 C-21.00002314 44.76558212 -21.00531547 41.16410147 -21.01171875 37.5625 C-21.01105797 35.29166639 -21.00977682 33.02083286 -21.0078125 30.75 C-21.00983673 29.66460937 -21.01186096 28.57921875 -21.01394653 27.4609375 C-21.01079437 26.46320312 -21.00764221 25.46546875 -21.00439453 24.4375 C-21.00359894 23.55449219 -21.00280334 22.67148437 -21.00198364 21.76171875 C-20.875 19.75 -20.875 19.75 -19.875 18.75 C-13.54483349 18.18845297 -8.35039715 19.91856634 -2.375 21.875 C6.75418491 24.77809704 15.90718506 27.34160726 25.234375 29.53173828 C34.36247768 31.78229916 44.71160065 35.46338935 50.33984375 43.48046875 C54.82355941 50.9639657 54.34331154 58.18605719 54.36523438 66.65649414 C54.37489363 68.91265389 54.40591727 71.16788369 54.4375 73.42382812 C54.51748866 84.18435335 53.91478089 92.76048114 46.125 100.75 C45.135 101.245 45.135 101.245 44.125 101.75 C44.125 102.74 44.125 103.73 44.125 104.75 C45.0325 105.471875 45.94 106.19375 46.875 106.9375 C51.80866058 110.94011705 53.85268583 115.14020649 54.50683594 121.40942383 C54.68027203 125.03251906 54.68698135 128.64920826 54.64648438 132.27563477 C54.62514106 134.54748512 54.64629167 136.81613982 54.671875 139.08789062 C54.69190178 149.22067677 53.87461806 158.66884002 47.0625 166.6875 C40.76034479 172.27747136 32.53395334 174.54534516 24.21484375 174.1953125 C19.05100242 173.45109264 14.17330153 171.88624253 9.21484375 170.31640625 C1.98123546 168.0402191 -5.36942504 166.17894394 -12.70141602 164.24975586 C-34.28132163 158.51736225 -34.28132163 158.51736225 -39.16015625 150.6875 C-41.5610618 146.00616445 -42.99812249 141.98961615 -43.01544189 136.68412781 C-43.02115204 135.63690552 -43.02686218 134.58968323 -43.03274536 133.51072693 C-43.03386322 132.36209671 -43.03498108 131.21346649 -43.03613281 130.0300293 C-43.04109772 128.82003265 -43.04606262 127.61003601 -43.05117798 126.3633728 C-43.06328739 123.04298941 -43.07074502 119.72266901 -43.07518864 116.40227103 C-43.07812117 114.32692745 -43.08222634 112.25158936 -43.08669281 110.17624855 C-43.10036549 103.68038162 -43.1100331 97.18452729 -43.1138947 90.68864697 C-43.11837414 83.19500049 -43.13591756 75.70153652 -43.1648953 68.20794553 C-43.18652679 62.41250635 -43.19659977 56.61711847 -43.19793582 50.82163936 C-43.19898286 47.36174648 -43.20486893 43.90202522 -43.22275543 40.44217491 C-43.24232957 36.58077509 -43.23794127 32.71960252 -43.23144531 28.8581543 C-43.2406601 27.71559677 -43.24987488 26.57303925 -43.2593689 25.39585876 C-43.22539961 18.95668291 -42.82740282 14.24227076 -38.5078125 9.1328125 C-34.69293006 5.95044943 -30.64828314 3.10473677 -26.5 0.375 C-25.46101563 -0.31335938 -24.42203125 -1.00171875 -23.3515625 -1.7109375 C-15.25589707 -5.2948613 -8.02205139 -2.6943305 0 0 Z " fill="#F00D3D" transform="translate(99.875,29.25)"/>
<path d="M0 0 C8.65580208 2.79838515 17.3368954 5.4041135 26.109375 7.8125 C27.54417709 8.20704376 27.54417709 8.20704376 29.00796509 8.60955811 C32.87877959 9.67159102 36.75030972 10.73059557 40.62591553 11.77502441 C43.36976988 12.51484287 46.11075215 13.2646211 48.8515625 14.015625 C49.66840515 14.23210693 50.4852478 14.44858887 51.32684326 14.67163086 C58.25280917 16.58201934 65.20154738 18.90470746 69.9375 24.5625 C70.48019531 25.18769531 71.02289063 25.81289063 71.58203125 26.45703125 C75.89626898 32.86831618 76.56918311 38.19176654 76.54492188 45.74926758 C76.55339142 46.72909103 76.56186096 47.70891449 76.57058716 48.71842957 C76.59390479 51.9439304 76.59498043 55.16895264 76.59375 58.39453125 C76.60085543 60.64743743 76.60855498 62.9003418 76.61682129 65.15324402 C76.63025464 69.87150097 76.63184027 74.58959063 76.62597656 79.30786133 C76.62008598 85.33687034 76.65065176 91.36507257 76.69109344 97.39392567 C76.71701878 102.04640483 76.71984335 106.69869109 76.71620178 111.35123253 C76.71788893 113.57306633 76.72749212 115.79490943 76.74534607 118.01667213 C76.76762764 121.13250381 76.75778601 124.24671988 76.74023438 127.36254883 C76.75349762 128.26937408 76.76676086 129.17619934 76.78042603 130.11050415 C76.69309223 136.82582988 74.9068704 142.1603221 71.125 147.75 C70.135 148.41 69.145 149.07 68.125 149.75 C68.12280016 148.90296509 68.12280016 148.90296509 68.12055588 148.03881836 C68.08344309 134.27462647 68.02411846 120.51068299 67.94109726 106.74668884 C67.901615 100.09037907 67.86943003 93.4342544 67.85400391 86.77783203 C67.83884261 80.3521195 67.80440533 73.92677108 67.75669098 67.5012207 C67.74187195 65.05170865 67.73395869 62.60214462 67.73311615 60.15258789 C67.73074645 56.71721736 67.70366415 53.282853 67.67089844 49.84765625 C67.6759288 48.83848648 67.68095917 47.82931671 67.68614197 46.78956604 C67.57622429 39.32387634 66.11712464 33.69869057 60.703125 28.36328125 C58.06683088 26.71360023 55.86211506 25.78440553 52.875 24.9375 C51.73289062 24.6075 50.59078125 24.2775 49.4140625 23.9375 C47.98472022 23.54042191 46.55499141 23.14473402 45.125 22.75 C43.25771123 22.22952987 41.39053226 21.70866568 39.5234375 21.1875 C36.35091463 20.30216233 33.17820503 19.41757736 30.00439453 18.53686523 C21.62889404 16.2024543 13.30480333 13.72286699 5.00048828 11.1472168 C2.37869906 10.33651608 -0.24714107 9.54078639 -2.875 8.75 C-3.84211914 8.45158203 -4.80923828 8.15316406 -5.80566406 7.84570312 C-6.76956055 7.56146484 -7.73345703 7.27722656 -8.7265625 6.984375 C-9.59361816 6.72366211 -10.46067383 6.46294922 -11.35400391 6.19433594 C-16.97034337 5.20443299 -20.45883061 7.5178841 -25 10.625 C-26.03382812 11.32367188 -27.06765625 12.02234375 -28.1328125 12.7421875 C-31.27892803 14.98387005 -31.27892803 14.98387005 -33.875 17.75 C-34.34877088 20.43210078 -34.34877088 20.43210078 -34.30737305 23.5065918 C-34.32716721 24.68758957 -34.34696136 25.86858734 -34.36735535 27.08537292 C-34.37694023 28.99797661 -34.37694023 28.99797661 -34.38671875 30.94921875 C-34.40466995 32.25454056 -34.42262115 33.55986237 -34.44111633 34.90473938 C-34.48863053 38.37182596 -34.51843022 41.83884741 -34.54455566 45.30615234 C-34.57435437 48.84550848 -34.62088696 52.38464013 -34.66601562 55.92382812 C-34.75206445 62.86575758 -34.81940254 69.80776174 -34.875 76.75 C-42.52639062 70.95975845 -42.52639062 70.95975845 -43.25595093 66.3352356 C-43.25833771 65.43844086 -43.26072449 64.54164612 -43.26318359 63.61767578 C-43.27264008 62.59626495 -43.28209656 61.57485413 -43.2918396 60.52249146 C-43.28576691 59.4245224 -43.27969421 58.32655334 -43.2734375 57.1953125 C-43.27630768 56.061008 -43.27917786 54.92670349 -43.28213501 53.75802612 C-43.28417612 51.35902406 -43.27864306 48.96000537 -43.26611328 46.56103516 C-43.25009083 42.89577801 -43.26594597 39.23162861 -43.28515625 35.56640625 C-43.28317325 33.23437257 -43.27932839 30.90233958 -43.2734375 28.5703125 C-43.27951019 27.47639191 -43.28558289 26.38247131 -43.2918396 25.25540161 C-43.23319307 18.88179144 -42.78155443 14.18803867 -38.5078125 9.1328125 C-34.69293006 5.95044943 -30.64828314 3.10473677 -26.5 0.375 C-25.46101563 -0.31335938 -24.42203125 -1.00171875 -23.3515625 -1.7109375 C-15.25589707 -5.2948613 -8.02205139 -2.6943305 0 0 Z " fill="#0D294F" transform="translate(99.875,29.25)"/>
<path d="M0 0 C5.12590235 0.08074338 9.76338152 1.80127821 14.59375 3.3828125 C23.72293491 6.28590954 32.87593506 8.84941976 42.203125 11.03955078 C51.33122768 13.29011166 61.68035065 16.97120185 67.30859375 24.98828125 C71.80771921 32.49749777 71.37699943 39.9168923 71.44384766 48.3840332 C71.46043158 49.92324925 71.48775429 51.46238752 71.52587891 53.0012207 C71.58076354 55.23168452 71.60253092 57.46035747 71.6171875 59.69140625 C71.63985687 60.37488632 71.66252625 61.05836639 71.68588257 61.76255798 C71.66882269 65.63777204 71.18867661 67.14282581 68.68725586 70.17285156 C65.37503665 72.83559768 63.17989988 73.37648605 59.09375 74.2578125 C59.5784375 73.08347656 60.063125 71.90914063 60.5625 70.69921875 C62.79426837 63.97364791 62.6074699 57.21646975 62.59375 50.1953125 C62.62166015 48.85870839 62.65030152 47.52211935 62.6796875 46.18554688 C62.76332879 36.91927087 62.76332879 36.91927087 58.7800293 28.82568359 C50.81020576 21.41549006 38.50859683 19.6941546 28.28125 17.0703125 C25.75984972 16.41432864 23.23931975 15.75519343 20.71955872 15.09294128 C19.16247034 14.6846471 17.60431894 14.28037825 16.04496765 13.8808136 C12.23231855 12.89055562 8.77086334 11.72865783 5.09375 10.2578125 C5.09375 22.1378125 5.09375 34.0178125 5.09375 46.2578125 C7.40375 46.5878125 9.71375 46.9178125 12.09375 47.2578125 C13.9475009 47.67265691 15.79467372 48.11835039 17.6328125 48.59765625 C18.62539062 48.85611328 19.61796875 49.11457031 20.640625 49.38085938 C22.16429687 49.78401367 22.16429687 49.78401367 23.71875 50.1953125 C24.74226563 50.46021484 25.76578125 50.72511719 26.8203125 50.99804688 C31.41814939 52.20438038 35.66091947 53.48468029 40.09375 55.2578125 C39.76375 50.9678125 39.43375 46.6778125 39.09375 42.2578125 C37.95035156 41.90847656 36.80695313 41.55914062 35.62890625 41.19921875 C34.13797012 40.73974787 32.64708745 40.28010349 31.15625 39.8203125 C30.40150391 39.59021484 29.64675781 39.36011719 28.86914062 39.12304688 C23.20703125 37.37109375 23.20703125 37.37109375 22.09375 36.2578125 C22.05294217 34.25822886 22.05120644 32.25735996 22.09375 30.2578125 C25.90809756 29.25605604 28.37076359 29.3240358 32.140625 30.4375 C33.06746094 30.70691406 33.99429688 30.97632812 34.94921875 31.25390625 C35.90441406 31.54394531 36.85960937 31.83398438 37.84375 32.1328125 C39.29974609 32.55626953 39.29974609 32.55626953 40.78515625 32.98828125 C47.93382626 35.09788876 47.93382626 35.09788876 49.09375 36.2578125 C49.19368532 38.3183656 49.22455906 40.3823384 49.2265625 42.4453125 C49.22849609 44.32863281 49.22849609 44.32863281 49.23046875 46.25 C49.22837402 46.90709961 49.2262793 47.56419922 49.22412109 48.24121094 C49.21877234 50.24942585 49.22406691 52.25741709 49.23046875 54.265625 C49.22917969 55.52117187 49.22789062 56.77671875 49.2265625 58.0703125 C49.22543457 59.23175781 49.22430664 60.39320312 49.22314453 61.58984375 C49.09375 64.2578125 49.09375 64.2578125 48.09375 65.2578125 C40.46087677 65.22974309 33.23309752 63.1331159 25.96875 61.0078125 C24.88013672 60.69569824 23.79152344 60.38358398 22.66992188 60.06201172 C-2.30610618 52.85795632 -2.30610618 52.85795632 -3.90625 51.2578125 C-4.00471967 49.69782202 -4.03423618 48.13340706 -4.03564453 46.5703125 C-4.03879669 45.57257813 -4.04194885 44.57484375 -4.04519653 43.546875 C-4.0431723 42.46148437 -4.04114807 41.37609375 -4.0390625 40.2578125 C-4.04001923 39.15179688 -4.04097595 38.04578125 -4.04196167 36.90625 C-4.04264367 34.56249942 -4.04078804 32.21874697 -4.03662109 29.875 C-4.03127314 26.27339462 -4.03656547 22.67191397 -4.04296875 19.0703125 C-4.04230797 16.79947889 -4.04102682 14.52864536 -4.0390625 12.2578125 C-4.04108673 11.17242187 -4.04311096 10.08703125 -4.04519653 8.96875 C-4.04204437 7.97101562 -4.03889221 6.97328125 -4.03564453 5.9453125 C-4.03484894 5.06230469 -4.03405334 4.17929687 -4.03323364 3.26953125 C-3.82972273 0.045441 -3.27747016 0.29074332 0 0 Z " fill="#122D52" transform="translate(82.90625,47.7421875)"/>
<path d="M0 0 C4.02875607 1.60686167 8.01754398 3.2820778 12 5 C11.51104248 5.33555908 11.02208496 5.67111816 10.51831055 6.0168457 C8.21990011 9.01893414 8.62998206 12.10675137 8.70703125 15.73046875 C8.71127609 16.48088943 8.71552094 17.23131012 8.71989441 18.00447083 C8.7366755 20.39918026 8.7743251 22.79304534 8.8125 25.1875 C8.82754765 26.8118368 8.84123591 28.4361868 8.85351562 30.06054688 C8.88657695 34.04068948 8.93835406 38.02020163 9 42 C9.70495605 42.19634033 10.40991211 42.39268066 11.13623047 42.5949707 C14.38277028 43.49980076 17.62888661 44.40614137 20.875 45.3125 C21.98359375 45.62123047 23.0921875 45.92996094 24.234375 46.24804688 C30.84557889 48.09529502 37.43184061 50.00499832 44 52 C44 47.71 44 43.42 44 39 C42.576875 38.8453125 42.576875 38.8453125 41.125 38.6875 C28.96867542 36.96867542 28.96867542 36.96867542 26 34 C25.95907063 31.66702567 25.95758277 29.33294775 26 27 C29.39057225 25.85530291 31.5029643 26.16134764 34.9140625 27.14453125 C35.83960938 27.40943359 36.76515625 27.67433594 37.71875 27.94726562 C38.6778125 28.23279297 39.636875 28.51832031 40.625 28.8125 C41.59179688 29.08642578 42.55859375 29.36035156 43.5546875 29.64257812 C50.73287408 31.73287408 50.73287408 31.73287408 53 34 C53.24291992 36.78149414 53.24291992 36.78149414 53.23046875 40.28515625 C53.22853516 41.53748047 53.22660156 42.78980469 53.22460938 44.08007812 C53.20624023 46.05137695 53.20624023 46.05137695 53.1875 48.0625 C53.18685547 49.38056641 53.18621094 50.69863281 53.18554688 52.05664062 C53.14009123 61.85990877 53.14009123 61.85990877 52 63 C44.82395314 62.56243617 38.35436131 60.84203001 31.5 58.75 C29.3828474 58.1157689 27.26565965 57.48165513 25.1484375 56.84765625 C23.59334473 56.37803467 23.59334473 56.37803467 22.00683594 55.89892578 C19.25254329 55.07550052 16.49279278 54.27831688 13.7265625 53.49609375 C12.94216797 53.27276367 12.15777344 53.04943359 11.34960938 52.81933594 C9.90162133 52.40807682 8.45244958 52.00095543 7.00195312 51.59863281 C4.03151322 50.74414328 2.2230499 50.2230499 0 48 C-0.24050903 45.93722534 -0.24050903 45.93722534 -0.22705078 43.36669922 C-0.22689972 42.40585419 -0.22674866 41.44500916 -0.22659302 40.45504761 C-0.21627045 39.41542877 -0.20594788 38.37580994 -0.1953125 37.3046875 C-0.1924826 36.24210724 -0.18965271 35.17952698 -0.18673706 34.08474731 C-0.17551639 30.68138501 -0.15040837 27.27828314 -0.125 23.875 C-0.11497264 21.57161838 -0.10584637 19.26823264 -0.09765625 16.96484375 C-0.07557093 11.30980655 -0.04207489 5.65492187 0 0 Z " fill="#EF0C3D" transform="translate(79,117)"/>
<path d="M0 0 C0.11632158 8.82366415 0.20493018 17.64706065 0.25906086 26.47132683 C0.28505314 30.56970353 0.32025821 34.66755214 0.37719727 38.765625 C0.43189176 42.72735846 0.46149834 46.68858695 0.47438622 50.6506691 C0.48355958 52.15525375 0.50147193 53.65981363 0.52865028 55.16418076 C0.68056992 63.92910522 0.48695005 71.71703742 -5 79 C-6.485 79.99 -6.485 79.99 -8 81 C-8.16258069 71.62035285 -8.28676462 62.24119465 -8.3626852 52.86044312 C-8.39913398 48.50394735 -8.44852733 44.14841932 -8.52807617 39.79248047 C-8.60444044 35.58432587 -8.64605308 31.37709873 -8.6641407 27.16830444 C-8.67702091 25.56710212 -8.70217433 23.9659475 -8.7401104 22.36514282 C-9.06092387 8.25965515 -9.06092387 8.25965515 -4.51977539 2.953125 C-1.36410082 0 -1.36410082 0 0 0 Z " fill="#F00637" transform="translate(176,98)"/>
<path d="M0 0 C6.08148271 -0.53418429 11.29206073 1.41883627 17 3.25 C19.0530987 3.8928435 21.10648404 4.53477228 23.16015625 5.17578125 C24.15547363 5.48854004 25.15079102 5.80129883 26.17626953 6.12353516 C31.75375758 7.85474578 37.37511959 9.43049264 43 11 C43 11.66 43 12.32 43 13 C27.55811025 13.58393701 12.2008118 11.8005412 -1 3 C-0.67 2.01 -0.34 1.02 0 0 Z " fill="#162A4F" transform="translate(80,114)"/>
<path d="M0 0 C1.2684375 0.4640625 1.2684375 0.4640625 2.5625 0.9375 C2.2325 1.5975 1.9025 2.2575 1.5625 2.9375 C-0.02217728 2.65322583 -1.6052057 2.35975182 -3.1875 2.0625 C-4.51007813 1.81886719 -4.51007813 1.81886719 -5.859375 1.5703125 C-8.30697744 0.96953736 -10.24349857 0.15752883 -12.4375 -1.0625 C-8.51832574 -3.02208713 -4.00036639 -1.23647688 0 0 Z " fill="#EA1F4B" transform="translate(100.4375,125.0625)"/>
</svg>
